<?xml version="1.0" standalone="no"?>
<!DOCTYPE svg PUBLIC "-//W3C//DTD SVG 20010904//EN"
 "http://www.w3.org/TR/2001/REC-SVG-20010904/DTD/svg10.dtd">
<svg version="1.0" xmlns="http://www.w3.org/2000/svg"
 width="400.000000pt" height="400.000000pt" viewBox="0 0 400.000000 400.000000"
 preserveAspectRatio="xMidYMid meet">
<metadata>
Created by potrace 1.14, written by Peter Selinger 2001-2017
</metadata>
<g transform="translate(0.000000,400.000000) scale(0.100000,-0.100000)"
fill="#000000" stroke="none">
<path d="M100 2483 c-57 -24 -60 -43 -59 -440 1 -443 3 -466 52 -508 l36 -31
1853 1 c1368 0 1858 3 1873 12 11 6 29 21 40 33 19 21 20 38 21 439 1 335 -1
422 -12 446 -30 64 122 60 -1916 61 -1491 0 -1864 -2 -1888 -13z"/>
</g>
</svg>
